<?xml version="1.0" encoding="iso-8859-1"?>
<!-- Uploaded to: SVG Repo, www.svgrepo.com, Generator: SVG Repo Mixer Tools -->
<svg version="1.1" id="Layer_1" xmlns="http://www.w3.org/2000/svg" xmlns:xlink="http://www.w3.org/1999/xlink" 
	 viewBox="0 0 490 490" xml:space="preserve">
<g>
	<polygon style="fill:#AFB6BB;" points="80,10 80,80 10,80 	"/>
	<g id="XMLID_86_">
		<g>
			<polygon style="fill:#FFFFFF;" points="110,235 360,235 360,190 255,190 255,70 360,70 360,10 80,10 80,80 10,80 10,480 360,480 
				360,435 110,435 			"/>
			<polygon style="fill:#31C0D8;" points="255,190 360,190 435,190 435,70 360,70 255,70 			"/>
			<polygon style="fill:#FCBD47;" points="295,335 480,235 360,235 110,235 			"/>
			<polygon style="fill:#FFD248;" points="480,235 295,335 110,235 110,435 360,435 480,435 			"/>
		</g>
		<path style="fill:#231F20;" d="M480,225H370v-25h65c5.522,0,10-4.478,10-10V70c0-5.522-4.478-10-10-10h-65V10
			c0-5.522-4.478-10-10-10H80v0.025c-2.601,0.001-5.159,0.992-7.071,2.904l-70,70C1.017,74.841,0.025,77.399,0.024,80H0v400
			c0,5.522,4.478,10,10,10h350c5.522,0,10-4.478,10-10v-35h110c5.522,0,10-4.478,10-10V235C490,229.478,485.522,225,480,225z
			 M440.471,245L295,323.633L149.529,245H440.471z M425,180H265V80h160V180z M70,34.143V70H34.143L70,34.143z M350,470H20V90h60
			c5.522,0,10-4.478,10-10V20h260v40h-95c-5.522,0-10,4.478-10,10v120c0,5.522,4.478,10,10,10h95v25H110c-5.522,0-10,4.478-10,10
			v200c0,5.522,4.478,10,10,10h240V470z M120,425V251.772l170.245,92.024c1.483,0.802,3.119,1.203,4.755,1.203
			s3.271-0.401,4.755-1.203L470,251.772V425H120z"/>
	</g>
	<g id="XMLID_88_">
		<g>
			<path style="fill:#E7ECED;" d="M315,105c13.8,0,25,11.2,25,25s-11.2,25-25,25s-25-11.2-25-25S301.2,105,315,105z"/>
		</g>
		<g>
			<g>
				<path style="fill:#231F20;" d="M315,165c-19.299,0-35-15.701-35-35s15.701-35,35-35s35,15.701,35,35S334.299,165,315,165z
					 M315,115c-8.271,0-15,6.729-15,15s6.729,15,15,15s15-6.729,15-15S323.271,115,315,115z"/>
			</g>
		</g>
	</g>
	<g>
		<rect x="365" y="100" style="fill:#231F20;" width="45" height="20"/>
	</g>
	<g>
		<rect x="365" y="135" style="fill:#231F20;" width="45" height="20"/>
	</g>
	<g>
		<rect x="60" y="140" style="fill:#231F20;" width="160" height="20"/>
	</g>
	<g>
		<rect x="60" y="180" style="fill:#231F20;" width="160" height="20"/>
	</g>
	<g>
		<rect x="160" y="100" style="fill:#231F20;" width="60" height="20"/>
	</g>
	<g>
		<rect x="160" y="60" style="fill:#231F20;" width="60" height="20"/>
	</g>
</g>
</svg>